<svg width="1440" height="634" viewBox="0 0 1440 634" fill="none" xmlns="http://www.w3.org/2000/svg">
<g opacity="0.3" filter="url(#filter0_f_608_131)">
<path d="M787.262 500.419C730.311 508.012 710.377 455.987 634.5 476C538.744 501.257 246.058 311.74 264 425C288 576.5 628.254 804.652 757.077 787.478C885.9 770.303 956.102 740.925 980.058 708.781C1032.26 638.744 916.085 483.245 787.262 500.419Z" fill="url(#paint0_linear_608_131)"/>
<path d="M765.893 501.743C629.959 524.49 465 583 616.535 653.864C634.829 678.795 813.783 710.971 949.717 688.225C1085.65 665.478 1195.42 403.393 1159 318.501C1122.58 233.609 901.826 478.996 765.893 501.743Z" fill="url(#paint1_linear_608_131)"/>
</g>
<defs>
<filter id="filter0_f_608_131" x="-36.79" y="0.717773" width="1502.85" height="1087.68" filterUnits="userSpaceOnUse" color-interpolation-filters="sRGB">
<feFlood flood-opacity="0" result="BackgroundImageFix"/>
<feBlend mode="normal" in="SourceGraphic" in2="BackgroundImageFix" result="shape"/>
<feGaussianBlur stdDeviation="150" result="effect1_foregroundBlur_608_131"/>
</filter>
<linearGradient id="paint0_linear_608_131" x1="310.643" y1="534.477" x2="595.589" y2="735.66" gradientUnits="userSpaceOnUse">
<stop stop-color="#5FECFF"/>
<stop offset="1" stop-color="#0085FF"/>
</linearGradient>
<linearGradient id="paint1_linear_608_131" x1="957.301" y1="344.185" x2="747.099" y2="564.116" gradientUnits="userSpaceOnUse">
<stop stop-color="#FFB951"/>
<stop offset="1" stop-color="#F90068"/>
</linearGradient>
</defs>
</svg>
