<svg width="20" height="20" viewBox="0 0 20 20" fill="none" xmlns="http://www.w3.org/2000/svg">
<g opacity="0.7">
<path d="M5.83269 5C5.37245 5 4.99935 5.3731 4.99935 5.83333C4.99935 6.29357 5.37245 6.66667 5.83269 6.66667V5ZM14.166 5.83333H14.9994C14.9994 5.3731 14.6263 5 14.166 5V5.83333ZM13.3327 14.1667C13.3327 14.6269 13.7058 15 14.166 15C14.6263 15 14.9994 14.6269 14.9994 14.1667H13.3327ZM4.4101 14.4108C4.08465 14.7362 4.08465 15.2638 4.4101 15.5893C4.73554 15.9147 5.26317 15.9147 5.5886 15.5893L4.4101 14.4108ZM5.83269 6.66667H14.166V5H5.83269V6.66667ZM13.3327 5.83333V14.1667H14.9994V5.83333H13.3327ZM13.5768 5.24408L4.4101 14.4108L5.5886 15.5893L14.7553 6.42258L13.5768 5.24408Z" fill="#22242C"/>
</g>
</svg>
