<svg width="147" height="14" viewBox="0 0 147 14" fill="none" xmlns="http://www.w3.org/2000/svg">
<g opacity="0.4">
<path fill-rule="evenodd" clip-rule="evenodd" d="M123 5.5H0V4.5H123V5.5Z" fill="#ECEDEE"/>
<path d="M140.591 14C143.487 14 145.69 11.6168 146.524 9.35929C146.972 8.18709 147.107 6.91364 146.915 5.67018C146.723 4.42672 146.211 3.25823 145.432 2.28504C143.972 0.54949 141.689 -0.230274 139.014 0.0589845C135.946 0.398549 133.854 2.53655 132.958 3.44835C132.657 3.76276 132.345 4.14636 131.995 4.56767C130.467 6.45413 128.737 8.57327 125.473 7.08296C125.131 6.88093 124.845 6.59422 124.641 6.24918C124.436 5.90415 124.319 5.51187 124.301 5.10845C124.309 4.64612 124.47 4.20032 124.758 3.84397C125.045 3.48762 125.442 3.24177 125.884 3.14652C126.267 3.11353 126.65 3.19746 126.987 3.3877C127.323 3.57795 127.597 3.86596 127.774 4.21549C127.807 4.30378 127.858 4.38381 127.924 4.45022C127.99 4.51663 128.069 4.56793 128.155 4.60067C128.242 4.63342 128.334 4.64686 128.426 4.64013C128.519 4.6334 128.608 4.60661 128.69 4.5616C128.771 4.51659 128.842 4.45437 128.898 4.37907C128.954 4.30376 128.993 4.21715 129.014 4.12491C129.035 4.03268 129.036 3.93693 129.018 3.84412C129 3.75132 128.963 3.66357 128.909 3.58667C128.606 3.00486 128.14 2.52889 127.572 2.21972C127.004 1.91054 126.358 1.78221 125.718 1.85111C124.97 1.986 124.29 2.38229 123.795 2.97266C123.299 3.56303 123.018 4.31106 123 5.08956C123.009 5.75965 123.196 6.41453 123.541 6.98393C123.886 7.55335 124.376 8.01582 124.957 8.32172C129.105 10.1705 131.443 7.30302 132.995 5.41027C133.308 5.02669 133.609 4.66825 133.879 4.37899C134.744 3.49864 136.541 1.65617 139.155 1.36691C141.395 1.12167 143.278 1.75053 144.45 3.14023C145.076 3.93244 145.486 4.8809 145.637 5.88856C145.788 6.89622 145.675 7.92689 145.309 8.87508C144.597 10.8056 142.689 12.7235 140.468 12.648C139.278 12.6103 137.314 11.9563 136.787 10.2962C136.631 9.77939 136.605 9.23059 136.711 8.70068C136.817 8.17078 137.052 7.6769 137.394 7.26488C137.736 6.85286 138.174 6.53597 138.668 6.34368C139.161 6.15138 139.694 6.08987 140.217 6.16482C140.305 6.1785 140.394 6.17243 140.48 6.14702C140.565 6.1216 140.644 6.07749 140.711 6.01767C140.778 5.95786 140.832 5.88376 140.868 5.80059C140.905 5.71743 140.923 5.62715 140.922 5.536C140.93 5.44724 140.92 5.35784 140.893 5.27317C140.866 5.18851 140.822 5.11033 140.765 5.04335C140.707 4.97638 140.637 4.922 140.559 4.88346C140.481 4.84492 140.396 4.82304 140.309 4.81913C139.473 4.73122 138.63 4.88138 137.872 5.25306C137.114 5.62474 136.471 6.20358 136.014 6.92575C135.682 7.48584 135.47 8.11175 135.391 8.76217C135.313 9.41259 135.37 10.0727 135.56 10.6987C136.265 12.8555 138.591 13.8931 140.468 13.9496L140.591 14Z" fill="#ECEDEE"/>
</g>
</svg>
