<svg width="147" height="14" viewBox="0 0 147 14" fill="none" xmlns="http://www.w3.org/2000/svg">
<g opacity="0.4">
<path fill-rule="evenodd" clip-rule="evenodd" d="M24 5.5H147V4.5H24V5.5Z" fill="#22242C"/>
<path d="M6.40912 14C3.5131 14 1.31038 11.6168 0.475934 9.35929C0.027896 8.18709 -0.107076 6.91364 0.0848926 5.67018C0.276861 4.42672 0.788846 3.25823 1.56809 2.28504C3.02838 0.54949 5.31081 -0.230274 7.98594 0.0589845C11.0538 0.398549 13.1461 2.53655 14.0419 3.44835C14.3425 3.76276 14.6553 4.14636 15.0051 4.56767C16.5328 6.45413 18.2632 8.57327 21.5273 7.08296C21.8685 6.88093 22.1547 6.59422 22.3594 6.24918C22.5642 5.90415 22.681 5.51187 22.6992 5.10845C22.6908 4.64612 22.5297 4.20032 22.2421 3.84397C21.9546 3.48762 21.5576 3.24177 21.1161 3.14652C20.7333 3.11353 20.3497 3.19746 20.0133 3.3877C19.677 3.57795 19.4032 3.86596 19.2265 4.21549C19.1932 4.30378 19.1419 4.38381 19.0761 4.45022C19.0103 4.51663 18.9314 4.56793 18.8448 4.60067C18.7581 4.63342 18.6656 4.64686 18.5735 4.64013C18.4814 4.6334 18.3917 4.60661 18.3105 4.5616C18.2292 4.51659 18.1583 4.45437 18.1024 4.37907C18.0464 4.30376 18.0067 4.21715 17.986 4.12491C17.9653 4.03268 17.9639 3.93693 17.9821 3.84412C18.0003 3.75132 18.0375 3.66357 18.0913 3.58667C18.3943 3.00486 18.8597 2.52889 19.4281 2.21972C19.9965 1.91054 20.6419 1.78221 21.2818 1.85111C22.0302 1.986 22.7098 2.38229 23.2053 2.97266C23.7008 3.56303 23.9817 4.31106 24 5.08956C23.9908 5.75965 23.8036 6.41453 23.4588 6.98393C23.114 7.55335 22.6244 8.01582 22.0426 8.32172C17.8949 10.1705 15.5573 7.30302 14.005 5.41027C13.6921 5.02669 13.3914 4.66825 13.1215 4.37899C12.2563 3.49864 10.4586 1.65617 7.84483 1.36691C5.60533 1.12167 3.72169 1.75053 2.54978 3.14023C1.92371 3.93244 1.51426 4.8809 1.36332 5.88856C1.21239 6.89622 1.32539 7.92689 1.69078 8.87508C2.40251 10.8056 4.3107 12.7235 6.5318 12.648C7.72211 12.6103 9.68551 11.9563 10.2132 10.2962C10.3691 9.77939 10.3952 9.23059 10.289 8.70068C10.1828 8.17078 9.94773 7.6769 9.60568 7.26488C9.26363 6.85286 8.82564 6.53597 8.33227 6.34368C7.8389 6.15138 7.30613 6.08987 6.78338 6.16482C6.69544 6.1785 6.60561 6.17243 6.52019 6.14702C6.43477 6.1216 6.3558 6.07749 6.28868 6.01767C6.22156 5.95786 6.16796 5.88376 6.13155 5.80059C6.09513 5.71743 6.07676 5.62715 6.07777 5.536C6.07023 5.44724 6.08029 5.35784 6.10735 5.27317C6.13442 5.18851 6.17795 5.11033 6.23528 5.04335C6.2926 4.97638 6.36257 4.922 6.44095 4.88346C6.51933 4.84492 6.60449 4.82304 6.69133 4.81913C7.52705 4.73122 8.37019 4.88138 9.12798 5.25306C9.88578 5.62474 10.5288 6.20358 10.9863 6.92575C11.3183 7.48584 11.5304 8.11175 11.6087 8.76217C11.6869 9.41259 11.6296 10.0727 11.4403 10.6987C10.7347 12.8555 8.4093 13.8931 6.5318 13.9496L6.40912 14Z" fill="#22242C"/>
</g>
</svg>
