<svg width="56" height="56" viewBox="0 0 56 56" fill="none" xmlns="http://www.w3.org/2000/svg">
<path d="M28.0001 5.59998C15.6297 5.59998 5.6001 15.6296 5.6001 28C5.6001 38.4962 12.8278 47.2789 22.5718 49.7093C22.4673 49.4069 22.4001 49.056 22.4001 48.621V44.7925C21.491 44.7925 19.9678 44.7925 19.5852 44.7925C18.0526 44.7925 16.69 44.1336 16.0292 42.909C15.2956 41.5482 15.1686 39.4669 13.3505 38.1938C12.811 37.7701 13.2217 37.2866 13.8433 37.352C14.9913 37.6768 15.9433 38.4645 16.8393 39.633C17.7316 40.8034 18.1516 41.0685 19.8185 41.0685C20.6268 41.0685 21.8364 41.0218 22.975 40.8426C23.5873 39.2877 24.6457 37.856 25.9393 37.1802C18.4801 36.413 14.9204 32.7021 14.9204 27.664C14.9204 25.4949 15.8444 23.3968 17.4142 21.629C16.899 19.8744 16.2513 16.296 17.6121 14.9333C20.9684 14.9333 22.9974 17.1098 23.4846 17.6978C25.1572 17.1248 26.994 16.8 28.9241 16.8C30.858 16.8 32.7022 17.1248 34.3785 17.7016C34.8601 17.1173 36.891 14.9333 40.2548 14.9333C41.6212 16.2978 40.966 19.8912 40.4452 21.6421C42.0057 23.4061 42.9241 25.4986 42.9241 27.664C42.9241 32.6984 39.37 36.4074 31.922 37.1784C33.9716 38.248 35.4668 41.2533 35.4668 43.5176V48.621C35.4668 48.8152 35.4238 48.9552 35.4014 49.1213C44.13 46.0618 50.4001 37.7738 50.4001 28C50.4001 15.6296 40.3705 5.59998 28.0001 5.59998Z" fill="white"/>
</svg>
