<svg width="56" height="56" viewBox="0 0 56 56" fill="none" xmlns="http://www.w3.org/2000/svg">
<path d="M18.6631 5.59998C11.4597 5.59998 5.6001 11.465 5.6001 18.6703V37.337C5.6001 44.5404 11.4651 50.4 18.6704 50.4H37.3371C44.5405 50.4 50.4001 44.535 50.4001 37.3297V18.663C50.4001 11.4595 44.5351 5.59998 37.3298 5.59998H18.6631ZM41.0668 13.0666C42.0972 13.0666 42.9334 13.9029 42.9334 14.9333C42.9334 15.9637 42.0972 16.8 41.0668 16.8C40.0364 16.8 39.2001 15.9637 39.2001 14.9333C39.2001 13.9029 40.0364 13.0666 41.0668 13.0666ZM28.0001 16.8C34.1769 16.8 39.2001 21.8232 39.2001 28C39.2001 34.1768 34.1769 39.2 28.0001 39.2C21.8233 39.2 16.8001 34.1768 16.8001 28C16.8001 21.8232 21.8233 16.8 28.0001 16.8ZM28.0001 20.5333C26.0198 20.5333 24.1206 21.32 22.7204 22.7202C21.3201 24.1205 20.5334 26.0197 20.5334 28C20.5334 29.9803 21.3201 31.8794 22.7204 33.2797C24.1206 34.68 26.0198 35.4666 28.0001 35.4666C29.9804 35.4666 31.8796 34.68 33.2798 33.2797C34.6801 31.8794 35.4668 29.9803 35.4668 28C35.4668 26.0197 34.6801 24.1205 33.2798 22.7202C31.8796 21.32 29.9804 20.5333 28.0001 20.5333Z" fill="white"/>
</svg>
