<svg width="56" height="56" viewBox="0 0 56 56" fill="none" xmlns="http://www.w3.org/2000/svg">
<path d="M45.92 4.47998H10.08C6.98878 4.47998 4.47998 6.98878 4.47998 10.08V45.92C4.47998 49.0112 6.98878 51.52 10.08 51.52H45.92C49.0112 51.52 51.52 49.0112 51.52 45.92V10.08C51.52 6.98878 49.0112 4.47998 45.92 4.47998ZM19.04 22.4V43.68H12.32V22.4H19.04ZM12.32 16.2064C12.32 14.6384 13.664 13.44 15.68 13.44C17.696 13.44 18.9616 14.6384 19.04 16.2064C19.04 17.7744 17.7856 19.04 15.68 19.04C13.664 19.04 12.32 17.7744 12.32 16.2064ZM43.68 43.68H36.96C36.96 43.68 36.96 33.3088 36.96 32.48C36.96 30.24 35.84 28 33.04 27.9552H32.9504C30.24 27.9552 29.12 30.2624 29.12 32.48C29.12 33.4992 29.12 43.68 29.12 43.68H22.4V22.4H29.12V25.2672C29.12 25.2672 31.2816 22.4 35.6272 22.4C40.0736 22.4 43.68 25.4576 43.68 31.6512V43.68Z" fill="white"/>
</svg>
